<svg xmlns="http://www.w3.org/2000/svg" viewBox="0 0 71 35.75"><defs><style>.cls-1{fill:#5db349;}</style></defs><title>Asset 6</title><g id="Layer_2" data-name="Layer 2"><g id="verdes"><rect class="cls-1" y="33.25" width="71" height="2.5"/><path class="cls-1" d="M24,0V24H71V0Zm2,3.27L27.27,2h4.56L26,7.83ZM26,10l8-8h4.56L26,14.51Zm0,6.68L40.63,2h4.56L26,21.19ZM27.31,22l20-20h4.56l-20,20ZM34,22,54,2h4.56l-20,20Zm6.68,0,20-20h4.56l-20,20Zm6.68,0,20-20H69V4.92L51.92,22ZM54,22,69,7V11.6L58.6,22Zm6.68,0L69,13.72v4.56L65.28,22Zm6.68,0L69,20.4V22Z"/><path class="cls-1" d="M18.11,13v-1.4h-3.4a3.94,3.94,0,0,0-.65-1.57l2.5-2.5-1-1-2.5,2.5a3.94,3.94,0,0,0-1.56-.64V4.94h-1.4v3.5a3.94,3.94,0,0,0-1.56.65l-2.5-2.5-1,1,2.5,2.5a3.94,3.94,0,0,0-.65,1.56H3.51V13H6.92a3.94,3.94,0,0,0,.64,1.56L5.07,17.09l1,1,2.49-2.49a3.94,3.94,0,0,0,1.57.65v3.46h1.4V16.23a3.94,3.94,0,0,0,1.56-.65L15.6,18.1l1-1L14.07,14.6A3.94,3.94,0,0,0,14.72,13Zm-5.06.55a2.58,2.58,0,0,1-1,1,2.56,2.56,0,0,1-2.5,0,2.58,2.58,0,0,1-1-1,2.57,2.57,0,0,1,0-2.49,2.58,2.58,0,0,1,1-1,2.57,2.57,0,0,1,2.49,0,2.58,2.58,0,0,1,1,1,2.56,2.56,0,0,1,0,2.5Z"/></g></g></svg>