<svg xmlns="http://www.w3.org/2000/svg" viewBox="0 0 57.98 70"><defs><style>.cls-1{fill:#5db349;}</style></defs><title>Asset 4</title><g id="Layer_2" data-name="Layer 2"><g id="verdes"><rect class="cls-1" width="2.5" height="70"/><path class="cls-1" d="M43.8,13.77V4.32H10.73V51.57H24.91V61H58V13.77Zm-2-7.45v.32l-7.13,7.13H30.12l7.45-7.45Zm0,2.44v5h-5ZM35.44,6.32,28,13.77H24.91v3.09L12.73,29V24.48L30.88,6.32ZM12.73,42.4V37.84L24.91,25.66v4.56ZM24.91,32.35v4.56L12.73,49.08V44.52ZM12.73,35.72V31.16L24.91,19v4.56Zm16-29.39-16,16V17.79L24.2,6.32Zm-6.68,0-9.35,9.35V11.11l4.79-4.79Zm-6.68,0L12.73,9V6.32Zm-1,43.24L24.91,39v4.56l-6,6Zm6.68,0,3.86-3.86v3.86ZM56,59H26.91V15.77H56Z"/><rect class="cls-1" x="34.35" y="26.94" width="14.17" height="2"/><rect class="cls-1" x="34.35" y="22.22" width="9.45" height="2"/></g></g></svg>