<svg xmlns="http://www.w3.org/2000/svg" viewBox="0 0 70.87 63.67"><defs><style>.cls-1{fill:#2d69b0;}</style></defs><title>Asset 18</title><g id="Layer_2" data-name="Layer 2"><g id="azuis"><rect class="cls-1" y="61.17" width="70.87" height="2.5"/><path class="cls-1" d="M50.94,10.45V0H20.44V10.45H4.72V53H66.14V24.62h0V10.45ZM45,21.52V19.9H43.41L36,12.45h4.56L52.69,24.62H48.13Zm1,3.1H45v-1ZM34.61,19.9H30L22.6,12.45h4.56Zm-5.33-7.45h4.56l7.45,7.45H36.73ZM43,21.9v5.45H27.81V21.9Zm-.39-9.45H47.2L59.37,24.62H54.81ZM22.44,2h26.5v8.45H22.44Zm-2,10.45,7.45,7.45H25.81v2.45l-9.9-9.9Zm-6.68,0,12,12v.16h-4.4L9.23,12.45Zm-7.07,0h.39L19.29,24.62H14.73l-8-8Zm0,6.29,5.88,5.88H8L6.72,23.3ZM64.14,51H6.72V26.62H25.81v2.72H45V26.62H64.14Zm0-26.35H61.5L49.32,12.45h4.56L64.14,22.71Zm0-4L56,12.45h4.56L64.14,16Zm0-6.68-1.46-1.46h1.46Z"/></g></g></svg>