<svg xmlns="http://www.w3.org/2000/svg" viewBox="0 0 71 67.75"><defs><style>.cls-1{fill:#5db349;}</style></defs><title>Asset 3</title><g id="Layer_2" data-name="Layer 2"><g id="verdes"><rect class="cls-1" y="65.25" width="71" height="2.5"/><path class="cls-1" d="M45,2V22H2V2H45m2-2H0V24H47V0Z"/><path class="cls-1" d="M24,33V57H71V33Zm45,3.74L50.74,55H46.18l20-20H69ZM57.42,55H52.86L69,38.86v4.56ZM69,45.54V50.1L64.1,55H59.54ZM39.45,35H44L26,53V48.45ZM26,46.33V41.77L32.77,35h4.56ZM46.13,35h4.56l-20,20H26.13Zm6.68,0h4.56l-20,20H32.81Zm6.68,0h4.56l-20,20H39.49ZM30.65,35,26,39.65V35ZM66.22,55,69,52.22V55Z"/><polygon class="cls-1" points="66.2 12.2 60.93 12.2 64.37 8.76 63.31 7.7 59.87 11.14 59.87 4.69 58.37 4.69 58.37 11.14 54.92 7.7 53.86 8.76 57.31 12.2 52.03 12.2 52.03 13.7 57.31 13.7 53.86 17.15 54.92 18.21 58.37 14.76 58.37 21.22 59.87 21.22 59.87 14.76 63.31 18.21 64.37 17.15 60.93 13.7 66.2 13.7 66.2 12.2"/><path class="cls-1" d="M18.11,45.85v-1.4h-3.4a3.94,3.94,0,0,0-.65-1.57l2.5-2.5-1-1-2.5,2.5a3.94,3.94,0,0,0-1.56-.64v-3.5h-1.4v3.5a3.94,3.94,0,0,0-1.56.65l-2.5-2.5-1,1,2.5,2.5a3.94,3.94,0,0,0-.65,1.56H3.51v1.4H6.92a3.94,3.94,0,0,0,.64,1.56L5.07,49.9l1,1L8.55,48.4a3.94,3.94,0,0,0,1.57.65v3.46h1.4V49a3.94,3.94,0,0,0,1.56-.65l2.52,2.52,1-1-2.52-2.52a3.94,3.94,0,0,0,.65-1.56Zm-5.06.55a2.58,2.58,0,0,1-1,1,2.56,2.56,0,0,1-2.5,0,2.58,2.58,0,0,1-1-1,2.57,2.57,0,0,1,0-2.49,2.58,2.58,0,0,1,1-1,2.57,2.57,0,0,1,2.49,0,2.58,2.58,0,0,1,1,1,2.56,2.56,0,0,1,0,2.5Z"/></g></g></svg>