<svg xmlns="http://www.w3.org/2000/svg" viewBox="0 0 63 71"><defs><style>.cls-1{fill:#2d69b0;}</style></defs><title>Asset 16</title><g id="Layer_2" data-name="Layer 2"><g id="azuis"><rect class="cls-1" width="3" height="71"/><path class="cls-1" d="M24.14,10H11V62H25V10ZM13,60V59l1,1Zm3.13,0L13,56.87V52.31L20.69,60ZM23,60h-.19L13,50.19V45.63l10,10Zm0-6.5-10-10V38.95l10,10Zm0-6.68-10-10V32.26l10,10Zm0-6.68-10-10V25.58l10,10Zm0-6.68-10-10V18.9l10,10Zm0-6.68-10-10V12.22l10,10Zm0-6.68L14.9,12h4.56L23,15.54ZM21.58,12H23v1.42Z"/><path class="cls-1" d="M30,10V62H63V10Zm2,50V12H61v7.52L43.81,36.71,35.07,28l-1.41,1.41L43.81,39.54,61,22.35V60Z"/></g></g></svg>