<svg xmlns="http://www.w3.org/2000/svg" viewBox="0 0 71.75 71"><defs><style>.cls-1{fill:#5db349;}</style></defs><title>Asset 1</title><g id="Layer_2" data-name="Layer 2"><g id="verdes"><rect class="cls-1" width="2.5" height="71"/><path class="cls-1" d="M13.75,2.13"/><path class="cls-1" d="M55.75,2V17h-43V2h43m2-2h-47V19h47V0Z"/><path class="cls-1" d="M69.8,52H10.75V71h61V52ZM12.75,54h1.6l-1.6,1.6Zm0,3.72L16.47,54H21l-8.28,8.28Zm0,6.68L23.15,54h4.56l-15,15ZM14.83,69l15-15H34.4l-15,15Zm6.68,0,15-15h4.56l-15,15Zm6.68,0,15-15h4.56l-15,15Zm6.68,0,15-15h4.56l-15,15Zm6.68,0,15-15h4.56l-15,15Zm6.68,0,15-15H67.8l-15,15Zm21.51,0H68.29l1.46-1.46Zm0-3.59L66.16,69H61.6l8.15-8.15Zm0-6.68L59.48,69H54.92L69.75,54.17Z"/><path class="cls-1" d="M69.75,25V45h-57V25h57m2-2h-61V47h61V23Z"/></g></g></svg>