<svg xmlns="http://www.w3.org/2000/svg" viewBox="0 0 71 71.28"><defs><style>.cls-1{fill:#5db349;}</style></defs><title>Asset 2</title><g id="Layer_2" data-name="Layer 2"><g id="verdes"><rect class="cls-1" y="68.78" width="71" height="2.5"/><path class="cls-1" d="M12,24.53v34H2v-34H12m2-2H0v38H14v-38Z"/><path class="cls-1" d="M27.5,13.53H19v47H33v-47Zm-6.5,45V55.92l2.61,2.61Zm4.73,0L21,53.8V49.24l9.29,9.29ZM31,57.12l-10-10V42.56l10,10Zm0-6.68-10-10V35.88l10,10Zm0-6.68-10-10V29.19l10,10Zm0-6.68-10-10V22.51l10,10Zm0-6.68-10-10V15.83l10,10Zm0-6.68-8.18-8.18h4.56L31,19.15Zm-1.5-8.18H31V17Z"/><path class="cls-1" d="M50,29.53v29H40v-29H50m2-2H38v33H52v-33Z"/><path class="cls-1" d="M69,20.53v38H59v-38H69m2-2H57v42H71v-42Z"/><path class="cls-1" d="M64.11,5.17a3,3,0,0,0-3,3,3,3,0,0,0,.15.89L45.32,19,26.38,0,8.83,13.69A3,3,0,0,0,7,13a3.05,3.05,0,1,0,2.78,1.82L26.25,2,45.1,21,62,10.38a3,3,0,1,0,2.12-5.21ZM8.52,16.09a1.61,1.61,0,1,1,0-.23A1.53,1.53,0,0,1,8.52,16.09ZM64.11,9.75a1.56,1.56,0,0,1-1.54-1.51s0,0,0,0a1.54,1.54,0,1,1,1.54,1.54Z"/></g></g></svg>