<svg xmlns="http://www.w3.org/2000/svg" viewBox="0 0 71 34.75"><defs><style>.cls-1{fill:#5db349;}</style></defs><title>Asset 5</title><g id="Layer_2" data-name="Layer 2"><g id="verdes"><rect class="cls-1" y="32.25" width="71" height="2.5"/><path class="cls-1" d="M45,2V22H2V2H45m2-2H0V24H47V0Z"/><polygon class="cls-1" points="66.47 12.46 61.2 12.46 64.64 9.02 63.58 7.96 60.14 11.4 60.14 4.95 58.64 4.95 58.64 11.4 55.19 7.96 54.13 9.02 57.58 12.46 52.3 12.46 52.3 13.96 57.58 13.96 54.13 17.41 55.19 18.47 58.64 15.02 58.64 21.48 60.14 21.48 60.14 15.02 63.58 18.47 64.64 17.41 61.2 13.96 66.47 13.96 66.47 12.46"/></g></g></svg>