<?xml version="1.0" encoding="UTF-8"?>
<svg width="366px" height="376px" viewBox="0 0 366 376" version="1.1" xmlns="http://www.w3.org/2000/svg" xmlns:xlink="http://www.w3.org/1999/xlink">
    <!-- Generator: Sketch 41.2 (35397) - http://www.bohemiancoding.com/sketch -->
    <title>Artboard 2 Copy</title>
    <desc>Created with Sketch.</desc>
    <defs>
        <polyline id="path-1" points="202.84 6.093 198.69 10.544 199.18 12.028 195.28 16.478 193.09 24.143 188.45 27.852 184.55 28.099 180.897 30.077 175.534 28.841 173.096 25.379 174.071 31.561 182.603 34.775 183.09 38.237 187.23 40.957 187.72 46.149 193.09 49.363 192.84 51.836 194.79 53.814 195.04 56.781 197.47 57.028 202.35 49.858 206.74 47.138 209.42 42.687 214.54 36.506 216.49 29.83 212.1 29.088 207.96 19.693 206.98 10.791 205.52 13.017 204.79 8.566 202.84 6.093"></polyline>
        <path d="M213.37,24.77 L212.94,24.734 L212.66,28.13 C212.65,28.26 212.7,28.387 212.79,28.476 C212.89,28.565 213.02,28.605 213.15,28.585 L214.85,28.324 C214.98,28.304 215.1,28.224 215.16,28.107 C215.22,27.989 215.23,27.85 215.17,27.729 L213.75,24.594 C213.67,24.418 213.49,24.318 213.3,24.351 C213.1,24.384 212.96,24.541 212.94,24.734 L213.37,24.77 L212.98,24.945 L214.17,27.569 L213.55,27.663 L213.79,24.805 L213.37,24.77 L212.98,24.945 L213.37,24.77" id="path-2"></path>
        <path d="M172.7,25.512 L169.499,24.77 L165.807,25.76 L163.345,25.017 L164.083,27.987 L162.852,29.968 L157.683,29.72 L155.959,30.958 L153.005,31.205 L149.805,28.978 L149.066,30.958 L144.389,32.69 L142.666,32.443 L140.204,33.433 L140.696,35.165 L139.219,36.156 L136.511,35.66 L138.727,51.254 L142.666,54.72 L144.635,60.165 L153.005,61.155 L155.467,63.878 L159.406,61.898 L162.114,61.65 L160.391,61.403 L156.944,61.155 L153.498,59.422 L152.267,56.947 L154.482,58.927 L156.698,58.185 L158.421,59.917 L160.883,59.917 L164.083,58.68 L164.33,61.65 L165.314,62.64 L168.515,62.888 L168.022,64.125 L164.33,64.125 L161.622,63.63 L156.452,69.571 L139.958,104.471 L143.158,115.61 L147.835,126.005 L153.99,132.193 L158.667,132.936 L216.52,133.431 L224.15,120.807 L222.92,117.342 L224.4,111.402 L222.92,108.679 L229.32,106.451 L231.29,98.036 L227.84,95.313 L228.34,91.6 L234.24,89.62 L241.88,79.967 L240.89,74.026 L248.03,66.601 L251.23,56.947 C250.72,56.535 253.97,54.643 250.84,55.383 L248.85,53.652 L247.08,54.066 L244.09,52.492 L238.18,50.512 L233.51,51.254 L230.06,54.967 L230.06,57.937 L230.8,58.68 L228.83,59.175 L227.6,58.432 L220.7,67.838 L222.18,61.403 L207.41,62.145 L226.86,57.69 L230.06,48.036 L225.38,46.551 L213.32,47.789 L210.61,55.71 L208.15,54.72 L197.07,60.412 L195.84,67.838 L194.61,63.383 L196.09,59.422 L187.47,61.898 L195.59,57.937 L194.61,53.729 L193.13,52.492 L192.89,49.274 L187.47,46.799 L186.73,40.363 L184.02,38.631 L181.808,34.918 L173.684,31.948 L172.7,25.512" id="path-3"></path>
        <polyline id="path-4" points="206.67 49.388 202.42 50.878 200.44 54.75 200.75 55.792 198.62 57.877 203.48 56.686 207.13 53.856 206.67 49.388"></polyline>
        <path d="M213.37,38.352 L212.95,38.305 L212.66,40.852 C212.65,40.98 212.69,41.109 212.78,41.2 C212.88,41.291 213,41.336 213.13,41.321 L214.83,41.125 C214.98,41.109 215.1,41.021 215.17,40.89 C215.23,40.76 215.22,40.608 215.15,40.484 L213.73,38.133 C213.64,37.977 213.45,37.898 213.28,37.937 C213.1,37.976 212.97,38.124 212.95,38.305 L213.37,38.352 L213,38.572 L214.08,40.356 L213.57,40.416 L213.79,38.399 L213.37,38.352 L213,38.572 L213.37,38.352" id="path-5"></path>
        <path d="M220.74,43.976 L220.6,43.577 L217.54,44.679 L216.73,44.24 L216.53,44.188 L214.75,44.188 L214.95,43.891 L220.7,44.4 L220.74,43.976 L220.6,43.577 L220.74,43.976 L220.78,43.553 L214.78,43.022 C214.63,43.009 214.48,43.078 214.4,43.203 L213.59,44.371 C213.5,44.501 213.48,44.669 213.56,44.81 C213.63,44.95 213.78,45.038 213.93,45.038 L216.42,45.038 L217.3,45.517 C217.4,45.575 217.53,45.584 217.64,45.543 L220.89,44.376 C221.07,44.309 221.19,44.119 221.16,43.922 C221.14,43.725 220.98,43.571 220.78,43.553 L220.74,43.976" id="path-6"></path>
        <path d="M211.38,43.446 L210.97,43.365 L210.45,46.048 L210.25,45.878 L211.73,43.684 L211.38,43.446 L210.97,43.365 L211.38,43.446 L211.03,43.207 L209.33,45.717 C209.21,45.896 209.24,46.14 209.41,46.28 L210.45,47.166 C210.57,47.263 210.73,47.292 210.87,47.242 C211.01,47.192 211.12,47.069 211.15,46.922 L211.8,43.526 C211.84,43.328 211.73,43.13 211.55,43.053 C211.36,42.976 211.14,43.041 211.03,43.207 L211.38,43.446" id="path-7"></path>
        <polyline id="path-8" points="135.627 35.865 132.531 34.542 127.666 29.251 127.887 24.401 124.128 23.74 125.012 19.992 126.781 16.244 126.118 11.615 129.214 9.631 125.897 6.765 124.791 6.765 123.906 5.221 124.128 0.151 120.368 0.151 120.368 4.34 114.398 5.883 113.071 7.646 107.764 9.41 103.783 9.631 98.697 12.717 94.495 12.496 91.842 12.276 86.313 8.969 90.957 14.26 89.188 17.567 90.073 22.858 94.274 23.078 97.37 24.842 96.928 27.267 99.582 28.59 103.12 36.526 105.11 46.006 105.773 48.872 105.552 51.297 111.744 57.028 112.85 52.178 116.609 49.092 118.378 51.738 123.464 51.517 122.801 47.108 126.56 45.565 127.445 41.156 136.511 42.037 135.627 35.865"></polyline>
        <polyline id="path-9" points="95.29 27.316 90.373 29.753 89.479 32.855 87.02 34.848 85.008 33.519 83.444 35.513 77.856 36.621 74.727 39.722 71.597 39.279 69.362 40.387 64.445 36.399 62.433 37.285 60.422 35.735 59.751 31.747 58.633 29.532 56.622 31.969 54.163 32.855 51.928 28.867 51.034 31.526 40.081 31.747 38.964 33.298 41.422 34.405 44.328 35.07 45.222 37.95 43.658 41.716 41.646 42.159 38.517 40.608 36.729 42.602 38.293 49.248 40.528 51.464 40.528 54.565 43.211 58.11 38.293 85.801 36.952 86.909 34.717 85.58 28.682 85.358 26.223 86.909 19.518 88.238 11.918 92.447 8.342 100.644 8.789 102.859 2.754 107.29 2.083 111.942 15.941 115.708 32.705 118.588 67.798 132.988 80.091 133.431 81.209 131.88 84.114 130.773 83.444 126.564 91.714 123.019 91.49 118.81 96.631 115.265 101.772 115.265 103.784 119.917 113.172 122.797 115.63 124.348 140.888 122.576 142.452 119.696 141.335 115.93 142.452 114.158 139.77 104.41 155.417 69.186 160.334 64.977 159.216 62.983 154.299 66.971 153.181 65.863 152.734 63.426 153.405 62.54 150.723 61.211 143.794 60.768 142.005 54.786 137.982 52.128 135.97 42.381 127.253 41.494 126.583 46.147 123.23 47.476 123.23 51.685 119.207 52.35 116.301 49.47 112.948 52.128 111.831 57.445 105.572 51.907 105.572 48.805 102.443 36.399 99.537 29.089 95.29 27.316"></polyline>
        <polyline id="path-10" points="1.945 111.359 0.382 113.823 3.731 118.528 9.314 124.8 9.314 128.833 8.421 131.073 14.003 131.521 18.246 135.777 23.828 134.433 25.615 132.193 28.518 127.265 31.198 128.161 31.198 129.729 30.304 131.521 31.867 134.881 32.537 139.81 33.654 141.154 37.45 138.69 45.042 139.138 51.295 143.618 53.081 139.138 56.207 137.794 63.8 136.673 67.596 133.761 33.431 118.976 1.945 111.359"></polyline>
        <polyline id="path-11" points="91.666 119.443 91.89 123.237 84.04 126.809 84.04 131.496 78.656 135.29 79.778 135.96 80.002 143.102 83.142 150.245 87.18 152.031 88.75 154.709 95.255 154.486 97.498 156.495 99.741 155.825 104.451 160.735 107.367 160.289 109.61 163.414 118.134 164.53 123.068 166.539 124.639 164.53 123.517 159.62 127.555 159.173 127.106 155.825 128.003 154.039 125.76 149.799 126.433 146.897 125.76 144.888 120.825 142.879 117.685 143.995 115.442 141.54 112.975 141.317 114.096 129.933 112.302 126.809 114.769 124.353 103.554 120.559 102.466 115.604 96.376 116.318 91.666 119.443"></polyline>
        <path d="M215.64,133.065 L161.029,132.618 L154.315,132.618 L147.601,125.696 L143.204,114.755 L141.111,116.765 L142.006,120.114 L140.216,123.24 L114.703,124.356 L112.912,126.143 L114.031,130.609 L112.689,140.88 L116.269,141.55 L117.388,143.783 L121.417,142.667 L126.117,144.899 L126.117,148.026 L125.893,150.482 L128.578,154.054 L126.788,156.734 L127.459,158.297 L124.102,159.637 L124.55,164.549 L122.76,166.782 L124.55,172.588 C124.475,175.491 124.401,178.394 124.326,181.296 L123.207,182.189 L125.669,188.665 L132.383,190.675 L137.307,189.558 L142.901,191.344 L142.901,194.247 L143.573,201.393 L147.601,202.956 L150.287,208.985 L155.658,201.169 L157.448,202.286 L160.582,200.5 L163.043,200.5 L167.743,204.072 L171.324,205.189 L175.129,202.286 L178.709,203.402 L182.29,200.5 L184.53,200.946 L184.3,205.412 L187.44,207.645 L189.23,206.305 L187.44,202.732 L188.11,198.267 L189.45,196.703 L189.45,193.801 L193.7,192.908 L194.15,189.781 L197.96,186.432 L202.66,186.655 L201.76,181.073 L204.67,179.287 L206.01,180.18 L208.47,175.044 L208.47,172.365 L209.82,169.685 L209.82,167.005 L211.61,164.326 L211.61,161.87 L212.73,158.52 L211.38,154.724 L212.28,151.375 L210.94,149.812 L211.16,145.123 L215.19,139.317 L215.64,133.065" id="path-12"></path>
        <polyline id="path-13" points="150.833 208.166 145.243 222.289 147.479 226.1 145.019 228.791 148.15 233.723 148.373 235.068 146.137 244.035 147.032 245.605 161.341 245.605 163.354 246.277 165.366 245.38 167.602 247.847 169.838 261.97 171.85 262.643 175.651 260.401 180.57 263.315 183.7 262.867 186.16 255.469 199.13 243.139 206.28 230.808 209.41 227.221 210.53 220.72 204.72 220.047 202.04 216.461 198.46 216.909 195.77 214.667 191.3 213.995 189.74 210.183 187.5 210.183 187.12 207.303 184.37 204.803 184.15 200.768 182.359 200.543 178.111 203.009 175.204 201.44 170.956 204.13 162.236 199.647 157.54 202.113 154.634 200.768 150.833 208.166"></polyline>
        <polyline id="path-14" points="181.504 263.995 178.201 278.104 182.825 279.646 185.25 286.701 189.65 288.023 191.63 286.921 193.84 288.905 205.51 291.33 206.17 287.362 212.11 283.835 220.04 285.819 224.22 283.394 229.73 286.039 229.73 282.953 229.07 281.63 231.05 279.426 228.63 278.324 230.61 276.781 231.93 276.56 233.03 279.206 234.35 276.781 234.13 273.033 231.71 273.695 228.41 271.711 226.87 267.302 221.58 267.302 219.38 262.232 220.04 256.28 217.18 254.076 211.45 255.839 205.73 252.753 200.88 252.753 200.66 251.431 191.63 251.871 185.69 255.619 181.504 263.995"></polyline>
        <polyline id="path-15" points="184.83 286.833 185.94 292.672 184.16 296.264 195.33 296.264 199.58 298.51 207.85 301.654 212.54 309.962 217.01 309.064 219.47 309.288 219.47 311.534 214.77 316.474 217.01 318.495 226.62 310.187 227.74 310.187 227.74 307.043 229.75 307.267 229.97 301.878 230.19 297.836 232.65 295.142 230.19 294.019 228.63 286.384 223.04 283.689 219.47 286.16 212.32 283.689 206.5 287.731 205.61 291.998 192.87 288.854 191.31 287.282 188.85 288.63 184.83 286.833"></polyline>
        <polyline id="path-16" points="183.77 296.423 170.968 302.204 164.228 307.54 158.613 317.767 150.975 324.66 156.142 325.994 158.388 329.107 161.308 328.662 164.678 334.22 166.699 332.219 168.497 332.442 180.627 343.558 183.32 344.003 188.94 351.785 192.31 350.451 195 346.226 193.43 353.563 191.86 353.119 187.82 355.342 187.82 361.79 189.84 359.122 190.96 356.454 192.98 354.23 193.66 356.454 197.92 346.226 197.7 343.114 199.95 339.112 202.42 338.667 203.76 335.109 206.24 332.219 204.66 329.551 207.58 330.885 211.85 329.551 210.5 332.442 207.58 337.111 207.36 339.112 203.99 340.223 199.5 344.003 199.5 346.449 211.4 335.999 217.92 318.434 215.45 316.656 219.04 310.653 218.37 308.652 212.53 309.986 208.03 301.315 194.33 296.646 183.77 296.423"></polyline>
        <polyline id="path-17" points="251.95 179.52 253.07 173.011 250.83 171.888 249.26 168.297 251.28 164.257 249.93 161.563 252.4 161.115 251.5 159.319 235.81 163.808 233.12 161.788 227.74 162.91 227.06 158.87 222.81 158.421 220.11 162.686 214.73 160.217 214.96 155.503 211.37 159.094 211.82 164.257 209.13 166.726 209.58 170.093 208.23 171.664 208.01 175.704 205.77 180.418 203.97 179.296 200.83 181.091 202.18 186.254 197.69 186.927 194.11 189.621 193.66 193.437 188.73 194.11 188.73 196.354 187.16 203.088 188.28 206.455 186.71 208.251 187.16 210.047 189.62 210.944 190.97 214.311 195.23 215.434 199.71 217.678 202.18 217.005 204.64 220.596 210.25 221.719 214.51 217.229 224.37 214.087 228.63 210.944 234.02 212.291 239.62 208.7 238.95 206.006 241.41 203.762 239.4 201.293 240.97 197.701 240.29 193.212 245 186.478 243.88 183.56 246.12 183.785 245.22 179.071 246.79 180.418 247.69 179.745 247.24 177.276 248.81 177.276 251.95 179.52"></polyline>
        <path d="M253.07,137.618 L249.62,136.078 L249.62,133.767 L247.51,132.227 L247.71,130.302 L245.41,128.57 L243.87,126.067 L241.96,125.489 L243.11,123.949 L244.26,123.564 L244.26,120.099 L247.9,121.062 L247.9,119.329 L246.37,118.174 L248.28,114.901 L246.17,114.516 L243.68,117.211 L241,113.361 L237.93,111.436 C237.87,108.484 237.81,105.532 237.74,102.58 L234.68,93.532 L229.5,95.457 L230.84,97.96 L228.74,106.623 L223.37,108.548 L224.33,111.628 L223.37,118.559 L223.56,120.291 L215.71,133.382 L215.13,139.543 L210.91,146.666 L210.53,150.516 L212.06,152.441 L211.3,155.906 L212.26,158.217 L215.32,156.099 L215.51,160.719 L220.5,163.029 L222.99,159.564 L226.63,159.757 L228.54,163.415 L233.14,162.259 L235.63,163.992 L250.77,160.334 L249.81,154.944 L251.54,149.361 L251.16,147.628 L248.09,145.896 L247.51,144.933 L249.43,142.045 L249.24,140.12 L253.07,137.618" id="path-18"></path>
    </defs>
    <g id="Page-1" stroke="none" stroke-width="1" fill="none" fill-rule="evenodd">
        <g id="Artboard-2-Copy">
            <g id="Group" transform="translate(7.000000, 9.000000)">
                <g id="Fill-360" stroke-linecap="round" stroke-linejoin="round">
                    <use stroke="#C0C9D5" stroke-width="2" fill="#C0CAD5" fill-rule="evenodd" xlink:href="#path-1"></use>
                    <use stroke="#BDC1C7" stroke-width="1" xlink:href="#path-1"></use>
                </g>
                <g id="Fill-363" stroke-linecap="round" stroke-linejoin="round">
                    <use stroke="#C0C9D5" stroke-width="2" fill="#C0CAD5" fill-rule="evenodd" xlink:href="#path-2"></use>
                    <use stroke="#BDC1C7" stroke-width="1" xlink:href="#path-2"></use>
                </g>
                <g id="Fill-365" stroke-linecap="round" stroke-linejoin="round">
                    <use stroke="#C0C9D5" stroke-width="2" fill="#C0CAD5" fill-rule="evenodd" xlink:href="#path-3"></use>
                    <use stroke="#BDC1C7" stroke-width="1" xlink:href="#path-3"></use>
                </g>
                <g id="Fill-366" stroke-linecap="round" stroke-linejoin="round">
                    <use stroke="#C0C9D5" stroke-width="2" fill="#C0CAD5" fill-rule="evenodd" xlink:href="#path-4"></use>
                    <use stroke="#BDC1C7" stroke-width="1" xlink:href="#path-4"></use>
                </g>
                <g id="Fill-369" stroke-linecap="round" stroke-linejoin="round">
                    <use stroke="#C0C9D5" stroke-width="2" fill="#C0CAD5" fill-rule="evenodd" xlink:href="#path-5"></use>
                    <use stroke="#BDC1C7" stroke-width="1" xlink:href="#path-5"></use>
                </g>
                <g id="Fill-371" stroke-linecap="round" stroke-linejoin="round">
                    <use stroke="#C0C9D5" stroke-width="2" fill="#C0CAD5" fill-rule="evenodd" xlink:href="#path-6"></use>
                    <use stroke="#BDC1C7" stroke-width="1" xlink:href="#path-6"></use>
                </g>
                <g id="Fill-373" stroke-linecap="round" stroke-linejoin="round">
                    <use stroke="#C0C9D5" stroke-width="2" fill="#C0CAD5" fill-rule="evenodd" xlink:href="#path-7"></use>
                    <use stroke="#BDC1C7" stroke-width="1" xlink:href="#path-7"></use>
                </g>
                <g id="Fill-374" stroke-linecap="round" stroke-linejoin="round">
                    <use stroke="#C0C9D5" stroke-width="2" fill="#C0CAD5" fill-rule="evenodd" xlink:href="#path-8"></use>
                    <use stroke="#BDC1C7" stroke-width="1" xlink:href="#path-8"></use>
                </g>
                <g id="Fill-376" stroke-linecap="round" stroke-linejoin="round">
                    <use stroke="#C0C9D5" stroke-width="2" fill="#C0CAD5" fill-rule="evenodd" xlink:href="#path-9"></use>
                    <use stroke="#BDC1C7" stroke-width="1" xlink:href="#path-9"></use>
                </g>
                <g id="Fill-378" stroke-linecap="round" stroke-linejoin="round">
                    <use stroke="#C0C9D5" stroke-width="2" fill="#C0CAD5" fill-rule="evenodd" xlink:href="#path-10"></use>
                    <use stroke="#BDC1C7" stroke-width="1" xlink:href="#path-10"></use>
                </g>
                <g id="Fill-380" stroke-linecap="round" stroke-linejoin="round">
                    <use stroke="#C0C9D5" stroke-width="2" fill="#C0CAD5" fill-rule="evenodd" xlink:href="#path-11"></use>
                    <use stroke="#BDC1C7" stroke-width="1" xlink:href="#path-11"></use>
                </g>
                <g id="Fill-382" stroke-linecap="round" stroke-linejoin="round">
                    <use stroke="#C0C9D5" stroke-width="2" fill="#C0CAD5" fill-rule="evenodd" xlink:href="#path-12"></use>
                    <use stroke="#BDC1C7" stroke-width="1" xlink:href="#path-12"></use>
                </g>
                <g id="Fill-384" stroke-linecap="round" stroke-linejoin="round">
                    <use stroke="#C0C9D5" stroke-width="2" fill="#C0CAD5" fill-rule="evenodd" xlink:href="#path-13"></use>
                    <use stroke="#BDC1C7" stroke-width="1" xlink:href="#path-13"></use>
                </g>
                <g id="Fill-386" stroke-linecap="round" stroke-linejoin="round">
                    <use stroke="#C0C9D5" stroke-width="2" fill="#C0CAD5" fill-rule="evenodd" xlink:href="#path-14"></use>
                    <use stroke="#BDC1C7" stroke-width="1" xlink:href="#path-14"></use>
                </g>
                <g id="Fill-388" stroke-linecap="round" stroke-linejoin="round">
                    <use stroke="#C0C9D5" stroke-width="2" fill="#C0CAD5" fill-rule="evenodd" xlink:href="#path-15"></use>
                    <use stroke="#BDC1C7" stroke-width="1" xlink:href="#path-15"></use>
                </g>
                <g id="Fill-390" stroke-linecap="round" stroke-linejoin="round">
                    <use stroke="#C0C9D5" stroke-width="2" fill="#C0CAD5" fill-rule="evenodd" xlink:href="#path-16"></use>
                    <use stroke="#BDC1C7" stroke-width="1" xlink:href="#path-16"></use>
                </g>
                <g id="Fill-400" stroke-linecap="round" stroke-linejoin="round">
                    <use stroke="#C0C9D5" stroke-width="2" fill="#C0CAD5" fill-rule="evenodd" xlink:href="#path-17"></use>
                    <use stroke="#BDC1C7" stroke-width="1" xlink:href="#path-17"></use>
                </g>
                <g id="Fill-404" stroke-linecap="round" stroke-linejoin="round">
                    <use stroke="#C0C9D5" stroke-width="2" fill="#C0CAD5" fill-rule="evenodd" xlink:href="#path-18"></use>
                    <use stroke="#BDC1C7" stroke-width="1" xlink:href="#path-18"></use>
                </g>
                <polyline id="Fill-406" stroke="#28501F" stroke-linecap="round" stroke-linejoin="round" fill="#5EB34B" points="253.15 136.827 254.77 132.715 252.55 129.191 253.15 127.282 255.37 124.345 255.07 117.884 267.94 110.689 270.61 107.752 273.12 107.165 276.52 108.487 279.04 102.907 276.52 97.474 281.7 92.334 280.22 89.985 278.15 88.223 279.19 84.699 282.44 80 288.81 74.42 288.81 70.015 284.66 69.868 275.34 65.756 274.75 67.078 271.64 66.637 269.72 68.693 267.5 68.399 268.09 71.924 265.87 71.924 264.39 69.427 265.87 64.288 263.21 65.609 264.54 62.379 262.76 58.121 258.18 59.589 257.73 61.204 256.55 59.589 257.29 57.68 252.41 55.331 247.23 67.078 240.27 73.686 241.01 79.559 233.91 89.691 227.55 91.747 227.99 95.418 229.92 95.565 234.21 93.949 237.46 102.613 237.61 111.13 243.68 117.003 245.45 114.801 247.67 115.094 246.49 117.884 247.67 119.793 247.67 121.115 243.97 120.234 243.68 123.317 242.2 125.814 244.86 127.135 247.82 131.394 247.97 132.568 249.74 133.743 249.45 136.827 253.15 136.827"></polyline>
                <polyline id="Fill-396" stroke="#28501F" stroke-linecap="round" stroke-linejoin="round" fill="#5EB34B" points="298.29 237.848 303.83 232.919 304.76 225.751 310.08 219.03 309.61 210.517 300.13 205.589 300.83 209.621 296.67 209.397 296.44 213.878 293.89 214.998 298.05 219.254 297.36 222.839 295.28 222.839 293.43 228.439 289.04 228.439 288.81 234.712 291.81 237.624 298.29 237.848"></polyline>
                <polyline id="Fill-408" stroke="#28501F" stroke-linecap="round" stroke-linejoin="round" fill="#5EB34B" points="295.07 121.304 301.28 117.058 300.27 110.029 301.57 106.515 301.57 103.294 299.11 103.733 298.1 95.679 296.81 94.069 294.35 86.016 295.94 82.208 295.36 77.962 293.2 74.741 294.35 71.519 288.87 69.762 288.29 74.594 281.79 80.158 278.3 85.635 278.62 88.622 281.22 91.58 276.31 97.437 278.62 103.733 276.45 108.858 272.7 107.101 270.1 108.272 267.79 111.347 255.24 118.083 254.95 124.672 253.07 128.625 254.66 133.018 253.94 137.118 256.39 137.557 259.71 140.193 264.76 141.071 267.51 139.461 270.54 139.021 271.98 135.361 273.86 134.043 272.7 129.211 273.57 127.454 275.88 128.479 278.19 128.186 281.94 130.236 295.07 121.304"></polyline>
                <polygon id="Fill-410" stroke="#28501F" stroke-linecap="round" stroke-linejoin="round" fill="#5EB34B" points="332.89 142.37 339.001221 138.5245 338.15 136.275 334.2 133.808 332.01 134.099 328.5 130.471 319.002441 129.456787 323.24 134.099 322.94 136.275 326.31 136.856 326.6 139.032 324.85 141.354 324.7 144.111 326.45 145.127 330.84 147.014"></polygon>
                <polyline id="Fill-412" stroke="#28501F" stroke-linecap="round" stroke-linejoin="round" fill="#5EB34B" points="338.82 138.525 341.89 136.716 341.74 134.605 346.56 130.686 350.06 124.355 346.71 122.395 343.2 124.053 340.43 123.45 339.7 127.52 336.93 126.465 333.86 128.425 331.82 126.767 331.38 124.807 329.92 124.204 328.46 125.561 327.15 123.3 325.39 125.561 320.29 128.726 320.29 129.932 328.46 130.837 332.69 134.454 335.47 134.304 338.82 138.525"></polyline>
                <path d="M352.62,115.049 L352.17,107.115 L349.37,107.849 L348.63,111.816 L346.27,110.935 L344.2,112.404 L344.79,114.461 L342.88,114.314 L341.084595,113.020386 L336.706299,113.341064 L335.093384,116.59314 L333.866089,116.397583 L332.873779,115.487061 L331.01355,115.857422 L331.36,115.487061 C331.36,115.487061 331.319775,114.838928 331.36,114.800049 C331.713108,114.45876 333.13,113.828735 333.13,113.828735 L333.866089,112.193848 L333.13,111.082 L333.58,109.025 L329.45,109.612 L327.38,111.229 L325.02,111.229 L321.77,114.314 L318.82,111.816 L314.39,114.02 L309.23,109.172 L306.86,108.584 L304.35,110.053 C303.09,110.572 300.4,108.741 300.55,111.611 L300.67,117.106 L294.76,122.542 L298.75,123.864 L301.85,130.035 L305.09,127.978 L308.49,124.305 L312.32,126.362 L314.69,125.481 L316.46,124.452 L316.16,126.656 L318.97,126.95 L319.26,128.86 L325.31,125.187 L326.35,123.717 L328.41,125.481 L330.33,124.599 L331.36,125.481 L331.81,127.391 L333.73,128.566 L337.12,126.656 L338.89,127.831 L340.81,123.277 L343.32,123.717 L346.42,122.983 L350.55,124.452 L352.62,115.049 Z" id="Fill-414" stroke="#28501F" stroke-linecap="round" stroke-linejoin="round" fill="#5EB34B"></path>
                <polyline id="Fill-416" stroke="#28501F" stroke-linecap="round" stroke-linejoin="round" fill="#5EB34B" points="351.77 107.169 350.31 101.822 347 101.389 343.34 101.389 340.72 102.978 339.41 101.1 336.07 102.545 337.09 105.29 335.49 106.446 333.31 104.423 330.84 105.29 329.67 103.412 328.07 102.834 330.4 100.378 332.58 100.233 332.73 98.066 328.36 97.776 328.07 100.089 325.89 99.655 323.57 101.967 322.7 105.146 316.88 105.724 317.32 107.313 318.92 108.18 319.35 110.781 319.5 113.093 321.97 114.249 324.88 111.359 328.95 110.781 330.84 110.059 333.89 109.625 332.73 111.504 331.71 113.382 330.25 114.827 330.25 116.561 332.43 116.561 333.89 117.862 335.78 118.151 337.38 114.683 341.3 113.527 343.48 115.116 345.08 114.683 344.21 111.793 346.1 111.504 348.42 111.793 351.77 107.169"></polyline>
                <polyline id="Fill-418" stroke="#28501F" stroke-linecap="round" stroke-linejoin="round" fill="#5EB34B" points="350.433105 101.793 348.91 95.851 347.17 91.938 340.96 91.068 338.65 91.068 335.04 90.633 334.61 89.619 332.87 90.198 330.85 87.589 326.08 91.648 324.06 96.286 319.44 100.054 319.72 101.793 322.32 101.359 324.06 102.228 326.95 99.329 327.81 99.474 328.469238 97.8662109 332.384033 98.4575195 332 99.474 330.13 100.344 328.095703 102.934814 330.85 105.440674 333.373291 104.257 335.604004 106.656738 337.21 105.440674 337.21 102.083 339.394287 101.793 340.96 102.934814 343.327881 101.359 350.433105 102.083"></polyline>
                <polyline id="Fill-420" stroke="#28501F" stroke-linecap="round" stroke-linejoin="round" fill="#5EB34B" points="331.35 87.626 327.18 86.888 325.54 83.493 321.66 81.721 312.72 73.896 310.34 73.896 304.83 69.762 294.25 71.534 293.06 75.815 295.59 78.178 296.04 82.754 294.7 86.298 296.64 94.565 298.13 97.223 298.87 103.571 301.4 103.719 300.66 109.92 304.08 110.658 308.85 109.329 312.87 112.577 315.11 113.906 318.98 112.872 319.88 110.658 318.53 107.115 317.04 106.819 316.6 105.638 318.39 105.638 322.26 105.491 323.75 102.685 321.66 101.8 318.98 102.095 319.43 99.733 323.6 96.632 325.83 91.465 331.35 87.626"></polyline>
                <g id="Group-2" transform="translate(189.000000, 121.000000)" stroke="#28501F" fill="#5EB34B" stroke-linecap="round" stroke-linejoin="round">
                    <path d="M56.55,143.133 L60.57,142.244 L65.71,140.689 L69.51,140.689 L73.3178711,136.299072 C73.1978711,135.633072 75.8744336,135.135 75.0444336,134.469 L75.98,128.915 L75.7033691,124.516846 L64.5275879,125.351562 L64.5275879,128.915 L59.0878906,129.5815 L59.0878906,125.983 L59.3452148,121.584 L57.44,117.586 L52.31,114.92 L52.08,112.698 L49.85,107.811 L39.35,109.588 L31.98,108.922 L28.41,105.812 L19.69,106.034 L9.64,121.584 L0.26,130.692 L10.98,130.47 L11.65,131.803 L16.79,131.803 L21.93,134.469 L28.18,133.58 L30.19,135.802 L30.19,141.8 L32.43,146.021 L37.34,146.465 L39.57,150.908 L45.38,153.351 L56.55,143.133 Z" id="Fill-392"></path>
                    <path d="M78.99,135.941 C78.99,135.941 77.61716,135.250374 77.3395996,134.519287 C77.0620393,133.7882 77.2499527,132.30705 78.99,132.697 C80.7300473,133.08695 81.1154785,134.519287 81.1154785,134.519287 L86.2207031,133.673828 C86.2207031,133.673828 88.3317871,131.264648 90.5810547,131.264648 C92.8303223,131.264648 91.21,133.346 91.21,133.346 L96.722168,132.697 C96.722168,132.697 97.1473316,131.104019 100.54,128.571777 C103.932668,126.039536 108.31,124.048 108.31,124.048 L108.31,116.869 L102.98,117.128 L100.54,113.452 L96.32,114.966 L98.54,117.344 L96.09,118.209 L96.09,121.669 L93.65,123.399 L91.21,121.885 L87.21,123.615 L74.99,126.642 L75.43,129.237 L73.43,136.373 L78.99,135.941 Z" id="Fill-394"></path>
                    <polyline id="Fill-398" points="115.26 86.151 114.37 82.814 112.59 82.814 114 78.352 115.08 75.482 115.71 72.578 116.82 69.241 113.48 65.013 107.7 64.346 105.69 65.681 103.91 63.456 98.57 59.45 95.46 60.563 93.23 57.67 91.01 56.78 89.67 54.11 86.33 54.11 84.77 55.89 81.44 52.33 74.09 53.888 73.87 55.89 67.42 59.005 64.97 59.895 61.63 61.453 61.63 58.115 58.74 55.668 57.85 57.003 58.74 59.005 57.4 59.673 56.29 58.338 55.4 60.118 56.51 63.01 54.73 63.233 55.84 66.348 50.28 72.578 52.51 76.806 49.83 80.366 51.84 81.479 52.06 83.259 50.06 84.816 50.28 87.709 50.06 88.376 45.16 91.492 39.37 90.157 34.92 93.717 25.8 95.942 21.13 100.837 20.68 106.4 27.8 105.51 32.25 109.515 40.27 109.96 48.5 108.402 51.84 111.295 52.51 115.968 57.85 118.638 58.29 130.431 65.19 129.095 64.97 126.425 74.98 125.758 77.43 126.425 91.9 122.42 94.57 123.755 96.79 121.975 95.9 117.748 98.13 116.858 97.24 114.855 100.13 113.075 100.58 107.29 104.58 107.067 106.36 102.395 108.14 101.727 108.59 97.944 104.58 93.717 107.48 92.382 107.03 89.044 111.04 89.044 110.81 85.261 115.26 86.151"></polyline>
                    <polygon id="Fill-402" points="125.67 83.862 124.55 79.832 127 65.056 125.67 62.817 127 59.683 126.56 53.638 127.67 46.922 128.79 40.206 129.68 37.295 131.91 40.206 141.5 26.326 139.04 25.878 137.93 23.863 135.48 23.415 135.25 20.057 137.93 18.49 137.48 16.027 134.14 14.684 133.92 12.445 129.46 8.192 127.23 8.639 125.89 6.624 119.87 3.042 116.97 6.624 113.85 9.087 111.4 10.878 108.28 11.774 106.05 13.117 103.37 14.236 98.25 14.236 96.24 16.699 95.12 19.161 92.23 21.176 90.67 21.624 92 18.49 91.78 15.579 94.68 14.908 98.91 11.55 102.7 11.326 107.16 9.087 109.39 9.535 112.96 8.192 109.62 1.699 106.27 0.546 102.22 3.244 99.13 5.248 95.35 7.968 92.67 8.863 89.33 6.401 87.32 7.52 85.09 5.953 83.75 7.968 85.31 11.997 84.42 14.236 82.19 14.684 81.08 17.594 77.96 18.266 75.51 20.057 70.6 19.609 66.1523438 16.027 64.5332422 17.8937988 61.6332422 20.057 61.46 21.624 60.0732422 24.1149902 63.1932422 25.9059902 63.69 27.486084 63.69 29.7185059 62.35 33.8833008 62.58 37.295 63.02 39.087 63.69 40.877 61.46 41.549 62.35 43.788 60.79 48.042 61.91 50.728 64.36 52.519 63.24 58.564 62.35 59.683 62.58 60.579 74.39 56.101 74.39 53.862 80.7648926 52.8461914 84.42 56.101 86.8615723 54.7312012 89.5315723 54.9542012 92.23 57.668 93.7763672 59.34375 95.12 60.579 98.91 60.579 105.461182 66.1149902 109.39 64.385 114.74 65.728 117.2 69.981 113.63 80.28 113.63 82.518 115.41 83.19 115.63 86.324 121.43 89.682"></polygon>
                </g>
                <circle id="Oval" stroke="#2D69B1" fill="#FFFFFF" cx="241.5" cy="258.5" r="3.5"></circle>
                <circle id="Oval-Copy" stroke="#2D69B1" fill="#FFFFFF" cx="277.5" cy="254.5" r="3.5"></circle>
                <circle id="Oval-Copy-2" stroke="#2D69B1" fill="#FFFFFF" cx="263.5" cy="225.5" r="3.5"></circle>
                <circle id="Oval-Copy-3" stroke="#2D69B1" fill="#FFFFFF" cx="319.5" cy="159.5" r="3.5"></circle>
            </g>
        </g>
    </g>
</svg>